<?xml version="1.0" encoding="UTF-8"?>
<svg version="1.1" xmlns="http://www.w3.org/2000/svg" width="816" height="708">
<path d="M0 0 C269.28 0 538.56 0 816 0 C816 233.64 816 467.28 816 708 C546.72 708 277.44 708 0 708 C0 474.36 0 240.72 0 0 Z " fill="#FEFEFF" transform="translate(0,0)"/>
<path d="M0 0 C0 43.89 0 87.78 0 133 C-13.53 133 -27.06 133 -41 133 C-41.495 125.575 -41.495 125.575 -42 118 C-42.99 119.381875 -43.98 120.76375 -45 122.1875 C-50.24268268 128.90997215 -55.7084495 132.08011621 -64 134 C-77.02624295 135.26741068 -87.96551528 134.62176869 -98.6875 126.6875 C-109.75319558 117.51487756 -118.40962077 106.70828076 -120.26318359 91.89697266 C-121.38020237 76.31861294 -117.94267779 62.78733041 -107.96484375 50.4921875 C-99.62664807 41.563811 -89.20155943 35.37197974 -76.88671875 34.6640625 C-65.72740798 34.42529051 -56.18943275 35.49539268 -47.53515625 43.2421875 C-45.44555794 45.63485732 -43.76210451 48.35684324 -42 51 C-41.67 35.82 -41.34 20.64 -41 5 C-36.05 4.34 -31.1 3.68 -26 3 C-21.67506351 2.2353514 -21.67506351 2.2353514 -17.35546875 1.44140625 C-11.36201258 0.31825443 -6.18518932 0 0 0 Z " fill="#D43EFF" transform="translate(125,266)"/>
<path d="M0 0 C10.67671386 7.22565484 18.36025993 18.8729816 21.02734375 31.53515625 C22.92964809 47.56141883 20.26111216 61.85315748 10.3125 74.9375 C7.8125 77.75 7.8125 77.75 5.3125 79.9375 C4.79042969 80.42734375 4.26835937 80.9171875 3.73046875 81.421875 C-0.36663247 85.15828334 -4.55785103 87.82811164 -9.6875 89.9375 C-10.54988281 90.29328125 -11.41226563 90.6490625 -12.30078125 91.015625 C-21.92759057 93.63607137 -34.47598088 93.68095055 -43.5625 89.4375 C-49.06694695 86.13010699 -53.78939223 81.73371554 -56.6875 75.9375 C-57.0175 89.1375 -57.3475 102.3375 -57.6875 115.9375 C-62.62768183 117.34898052 -67.28069667 118.50876462 -72.30078125 119.4453125 C-73.34421944 119.64083206 -73.34421944 119.64083206 -74.40873718 119.84030151 C-75.8647254 120.11240467 -77.32101407 120.38290472 -78.77758789 120.65185547 C-81.01198921 121.0647153 -83.24529648 121.48314129 -85.47851562 121.90234375 C-96.39731118 123.9375 -96.39731118 123.9375 -98.6875 123.9375 C-98.6875 81.3675 -98.6875 38.7975 -98.6875 -5.0625 C-85.1575 -5.0625 -71.6275 -5.0625 -57.6875 -5.0625 C-57.1925 1.8675 -57.1925 1.8675 -56.6875 8.9375 C-55.883125 7.74125 -55.07875 6.545 -54.25 5.3125 C-41.1023619 -12.21768413 -17.13899239 -9.84781883 0 0 Z " fill="#D43EFF" transform="translate(364.6875,308.0625)"/>
<path d="M0 0 C0.96873047 -0.00773437 1.93746094 -0.01546875 2.93554688 -0.0234375 C19.20707794 0.0199822 32.71841752 4.43533307 44.5703125 15.9375 C47.81057968 19.47668481 50.42034815 23.02034482 52.6875 27.25 C53.1 27.98863281 53.5125 28.72726562 53.9375 29.48828125 C58.89572155 40.28274274 58.49662629 55.8366586 55.0625 67.0625 C49.00630552 81.82182712 38.9578887 89.94170392 24.6875 96.25 C23.84574219 96.62382812 23.00398438 96.99765625 22.13671875 97.3828125 C15.46479776 99.74511945 8.48352381 99.46703942 1.5 99.5 C0.42685547 99.520625 -0.64628906 99.54125 -1.75195312 99.5625 C-16.52501138 99.63399695 -30.44843161 94.81390079 -41.27734375 84.515625 C-47.10456437 78.028508 -51.23413756 70.72332381 -53.3125 62.25 C-53.58513672 61.15171875 -53.58513672 61.15171875 -53.86328125 60.03125 C-56.29250669 44.99117597 -53.75350272 32.38921786 -45.19921875 19.74609375 C-34.63492772 5.76973356 -16.91866924 -0.13348063 0 0 Z " fill="#D43EFF" transform="translate(194.3125,300.75)"/>
<path d="M0 0 C10.65805919 6.83005284 15.47106434 15.64659053 19.30859375 27.4921875 C19.51613281 28.11996094 19.72367187 28.74773437 19.9375 29.39453125 C20.51590036 32.66401537 20.41173704 35.93444928 20.37109375 39.2421875 C20.36658203 39.93957031 20.36207031 40.63695312 20.35742188 41.35546875 C20.34569395 43.06774553 20.32776028 44.77997783 20.30859375 46.4921875 C16.9151625 48.18890313 13.05510807 48.21496202 9.3203125 48.6484375 C8.42496292 48.7556311 7.52961334 48.86282471 6.60713196 48.9732666 C3.73719253 49.31643071 0.86669863 49.65463875 -2.00390625 49.9921875 C-4.86372196 50.33033407 -7.72339666 50.66957092 -10.58280945 51.0111084 C-12.36332967 51.2235958 -14.14409442 51.43404663 -15.92512512 51.64221191 C-19.89273409 52.11402799 -23.77733816 52.67602944 -27.69140625 53.4921875 C-29.46118386 53.55677792 -31.23310777 53.57829815 -33.00390625 53.5546875 C-33.88691406 53.54566406 -34.76992188 53.53664063 -35.6796875 53.52734375 C-36.34355469 53.51574219 -37.00742187 53.50414062 -37.69140625 53.4921875 C-37.22541794 54.75526109 -36.71627034 56.00242233 -36.19140625 57.2421875 C-35.91296875 57.93828125 -35.63453125 58.634375 -35.34765625 59.3515625 C-32.39646304 63.16584052 -28.22562605 65.03281747 -23.51757812 65.88623047 C-21.22634815 66.06564577 -18.98914204 66.09667271 -16.69140625 66.0546875 C-15.87414062 66.04953125 -15.056875 66.044375 -14.21484375 66.0390625 C-6.95901547 65.82565579 -0.59028916 64.07910274 6.18359375 61.5859375 C9.30859375 60.4921875 9.30859375 60.4921875 12.30859375 60.4921875 C12.9793907 64.26229827 13.64452178 68.03338686 14.30859375 71.8046875 C14.499375 72.87654297 14.69015625 73.94839844 14.88671875 75.05273438 C15.0671875 76.08076172 15.24765625 77.10878906 15.43359375 78.16796875 C15.60117187 79.11583252 15.76875 80.06369629 15.94140625 81.0402832 C16.30859375 83.4921875 16.30859375 83.4921875 16.30859375 86.4921875 C13.41398156 87.4750932 10.51801296 88.45362451 7.62109375 89.4296875 C6.80447266 89.70748047 5.98785156 89.98527344 5.14648438 90.27148438 C4.35048828 90.53896484 3.55449219 90.80644531 2.734375 91.08203125 C2.00645752 91.32816162 1.27854004 91.57429199 0.52856445 91.82788086 C-6.02037468 93.7875931 -12.43122275 93.74706512 -19.22680664 93.78735352 C-21.2237051 93.80442925 -23.22031637 93.84829936 -25.21679688 93.89257812 C-39.97361424 93.98825824 -53.59876539 89.4000825 -64.56640625 79.1796875 C-76.42365261 66.28131707 -78.46717606 51.73929244 -77.86621094 34.96582031 C-77.09333715 24.02900863 -70.30529348 14.72424393 -62.62890625 7.3046875 C-45.66677028 -7.03893692 -19.63533138 -11.0003453 0 0 Z " fill="#D43EFF" transform="translate(473.69140625,306.5078125)"/>
<path d="M0 0 C6.6 0 13.2 0 20 0 C20 11.88 20 23.76 20 36 C27.59 36 35.18 36 43 36 C43 43.92 43 51.84 43 60 C35.41 60 27.82 60 20 60 C20.096999 65.05415853 20.199767 70.10750904 20.31738281 75.16113281 C20.35563327 76.87981011 20.39049303 78.59856638 20.421875 80.31738281 C20.46761128 82.7900004 20.52559084 85.26207613 20.5859375 87.734375 C20.59748871 88.50118591 20.60903992 89.26799683 20.62094116 90.05804443 C20.72448027 93.81221614 20.81472138 96.85774039 23 100 C26.10964801 102.16175092 28.77642118 102.24376287 32.5 102.1875 C33.4384375 102.18105469 34.376875 102.17460937 35.34375 102.16796875 C37.70620585 102.01857816 39.73716665 101.66710889 42 101 C42.83930594 110.02253886 43.12224626 118.9401941 43 128 C41.845 128.61875 40.69 129.2375 39.5 129.875 C38.52546875 130.39707031 38.52546875 130.39707031 37.53125 130.9296875 C30.56880596 133.8736839 24.02497411 134.33940149 16.5625 134.3125 C15.67240234 134.32861328 14.78230469 134.34472656 13.86523438 134.36132812 C4.12938984 134.36843977 -3.91454136 131.83133882 -11 125 C-18.72400645 116.03525949 -20.48529024 105.60287054 -20.29296875 94.08203125 C-20.28872391 93.09877365 -20.28447906 92.11551605 -20.28010559 91.10246277 C-20.26350248 88.00551296 -20.22588645 84.90924838 -20.1875 81.8125 C-20.17242937 79.69467095 -20.15874517 77.57683156 -20.14648438 75.45898438 C-20.11365947 70.30573126 -20.06200749 65.15298122 -20 60 C-24.29 60 -28.58 60 -33 60 C-33 52.08 -33 44.16 -33 36 C-27.72 36 -22.44 36 -17 36 C-16.34 34.02 -15.68 32.04 -15 30 C-13.87521901 27.59122245 -12.72702814 25.21964759 -11.5234375 22.8515625 C-11.19332672 22.19417084 -10.86321594 21.53677917 -10.52310181 20.85946655 C-9.47750603 18.77938683 -8.4263553 16.70217356 -7.375 14.625 C-6.6610881 13.20721762 -5.9475427 11.78925062 -5.234375 10.37109375 C-3.49448723 6.91154946 -1.7471011 3.45594451 0 0 Z " fill="#D43EFF" transform="translate(768,266)"/>
<path d="M0 0 C0.00546844 1.84709564 0.00546844 1.84709564 0.01104736 3.73150635 C0.0479616 15.32674155 0.10569519 26.9217103 0.18390274 38.51674271 C0.22344026 44.47813277 0.25559801 50.43937373 0.27099609 56.40087891 C0.28612123 62.15227401 0.32049326 67.90325935 0.36830902 73.65447235 C0.38316559 75.85050651 0.39104345 78.04659916 0.39188385 80.24268341 C0.39424236 83.31490454 0.42123258 86.38598295 0.45410156 89.45800781 C0.4490712 90.36934982 0.44404083 91.28069183 0.43885803 92.21965027 C0.5009684 97.23709842 0.5009684 97.23709842 2.85443115 101.56976318 C5.71141371 103.47422858 7.59271456 103.4360141 11 103.3125 C12.03125 103.28800781 13.0625 103.26351562 14.125 103.23828125 C16.55025981 103.03727466 18.67463917 102.68754659 21 102 C21.69037426 111.02417777 22.15178302 119.94361322 22 129 C20.67083439 129.63381508 19.33635391 130.25648484 18 130.875 C16.88625 131.39707031 16.88625 131.39707031 15.75 131.9296875 C4.58764219 136.2741279 -9.28550242 137.1259811 -20.85546875 133.9375 C-29.5465209 129.88387872 -35.01616238 124.19498955 -38.375 115.25 C-39.87163255 110.69503138 -41.12630316 106.53731705 -41.12025452 101.72259521 C-41.12162918 100.87568115 -41.12300385 100.02876709 -41.12442017 99.15618896 C-41.12082489 98.23549622 -41.11722961 97.31480347 -41.11352539 96.36621094 C-41.11367142 95.39026978 -41.11381744 94.41432861 -41.1139679 93.40881348 C-41.1132714 90.18397802 -41.10549126 86.95920037 -41.09765625 83.734375 C-41.09579114 81.49806754 -41.09436767 79.26175967 -41.09336853 77.02545166 C-41.08955071 71.14000317 -41.07972666 65.25457936 -41.06866455 59.36914062 C-41.05843466 53.36328465 -41.05386752 47.35742468 -41.04882812 41.3515625 C-41.03810376 29.56769749 -41.02103612 17.7838508 -41 6 C-35.64361513 5.14255274 -30.28675955 4.2881325 -24.92944336 3.43652344 C-23.10671926 3.14634174 -21.28412696 2.85533086 -19.46166992 2.56347656 C-16.84327798 2.14430573 -14.22442771 1.72811149 -11.60546875 1.3125 C-10.78974899 1.18125732 -9.97402924 1.05001465 -9.1335907 0.91479492 C-6.05699298 0.42887161 -3.12016582 0 0 0 Z " fill="#D43EFF" transform="translate(549,265)"/>
<path d="M0 0 C1.20849609 -0.02900391 2.41699219 -0.05800781 3.66210938 -0.08789062 C12.28542432 -0.14793513 19.48312263 1.31879081 27.5625 4.3125 C28.40085059 7.77571824 28.60054307 10.44880678 28.00390625 13.95703125 C27.86533203 14.79814453 27.72675781 15.63925781 27.58398438 16.50585938 C27.43251953 17.37017578 27.28105469 18.23449219 27.125 19.125 C26.97740234 20.00865234 26.82980469 20.89230469 26.67773438 21.80273438 C26.31388037 23.97412119 25.94192112 26.14378869 25.5625 28.3125 C24.99402344 28.17972656 24.42554688 28.04695313 23.83984375 27.91015625 C16.30206278 26.18615626 9.04529819 25.13221343 1.3125 25.125 C0.25289062 25.10663086 0.25289062 25.10663086 -0.828125 25.08789062 C-4.58671497 25.07721281 -6.23109134 25.17489423 -9.4375 27.3125 C-9.16132467 29.25324861 -9.16132467 29.25324861 -8.4375 31.3125 C-5.02105396 33.59013069 -1.80544001 34.2934767 2.125 35.1875 C14.36325804 38.1655218 24.47830116 41.62526763 32.078125 52.4765625 C36.08709771 60.24041811 35.54901834 69.86511639 33.37109375 78.15625 C30.32011586 86.29219104 25.15235881 91.34531301 17.5625 95.3125 C8.74647271 99.12349148 0.71629043 99.90612712 -8.8125 99.75 C-10.02421875 99.75708984 -11.2359375 99.76417969 -12.484375 99.77148438 C-22.79352705 99.70004569 -32.89841049 98.40115648 -42.4375 94.3125 C-42.15292568 91.79068712 -41.86004942 89.27028804 -41.5625 86.75 C-41.48386719 86.04552734 -41.40523437 85.34105469 -41.32421875 84.61523438 C-40.77116097 79.9993291 -39.82554164 75.75073397 -38.4375 71.3125 C-36.66618439 71.62225468 -34.89546222 71.93540425 -33.125 72.25 C-32.13886719 72.42402344 -31.15273438 72.59804688 -30.13671875 72.77734375 C-27.4375 73.3125 -27.4375 73.3125 -24.4375 74.3125 C-22.73733156 74.39428114 -21.03413703 74.41999501 -19.33203125 74.41015625 C-17.85766602 74.40532227 -17.85766602 74.40532227 -16.35351562 74.40039062 C-15.32935547 74.39201172 -14.30519531 74.38363281 -13.25 74.375 C-12.21423828 74.37048828 -11.17847656 74.36597656 -10.11132812 74.36132812 C-7.55332734 74.3495401 -4.99544267 74.33308515 -2.4375 74.3125 C-2.02003392 71.43885209 -2.02003392 71.43885209 -2.4375 68.3125 C-6.05552876 65.16850969 -10.42385528 64.46872487 -15 63.5 C-24.57025847 61.26606148 -33.89142399 58.22491223 -40.25390625 50.31640625 C-43.87004608 44.19403089 -44.94023443 39.40252694 -44.875 32.375 C-44.9049707 31.23514648 -44.9049707 31.23514648 -44.93554688 30.07226562 C-44.92894032 22.33598915 -41.83204505 15.85284357 -36.4375 10.3125 C-30.5582585 5.58013313 -24.73481541 3.06435983 -17.4375 1.3125 C-16.85581055 1.14121582 -16.27412109 0.96993164 -15.67480469 0.79345703 C-10.56879026 -0.3041912 -5.20042757 0.04043878 0 0 Z " fill="#D43EFF" transform="translate(692.4375,300.6875)"/>
<path d="M0 0 C13.53 0 27.06 0 41 0 C41.02578125 4.42921875 41.0515625 8.8584375 41.078125 13.421875 C41.10980421 16.95535462 41.14545434 20.48874454 41.18379211 24.02215576 C41.22316188 27.75111778 41.25554582 31.47984001 41.27099609 35.20898438 C41.28614961 38.8013727 41.32057024 42.39310868 41.36830902 45.9852066 C41.38313661 47.35505755 41.39104181 48.72500163 41.39188385 50.09493256 C41.39425071 52.01489632 41.42359812 53.93476929 41.45410156 55.85449219 C41.46298401 56.94703308 41.47186646 58.03957397 41.48101807 59.16522217 C42.12382651 62.67636391 43.17037567 63.87792035 46 66 C50.22417166 66.38401561 53.88184564 65.86883874 58 65 C58.33865141 67.99948391 58.67105073 70.99944926 59 74 C59.09539063 74.83917969 59.19078125 75.67835938 59.2890625 76.54296875 C59.85214909 81.73140945 60.09664316 86.78126961 60 92 C52.14286364 96.81049165 45.29028885 98.34705991 36.125 98.3125 C35.27808594 98.32861328 34.43117188 98.34472656 33.55859375 98.36132812 C24.7892796 98.36804276 16.45170669 96.21963091 10 90 C2.53474834 80.97143682 -0.13571209 70.84171039 -0.11352539 59.26025391 C-0.11367142 58.61564209 -0.11381744 57.97103027 -0.1139679 57.30688477 C-0.11327661 55.19674195 -0.10552133 53.08668971 -0.09765625 50.9765625 C-0.09578928 49.5054021 -0.09436669 48.03424108 -0.09336853 46.56307983 C-0.08956533 42.70634215 -0.07975398 38.84964262 -0.06866455 34.99291992 C-0.05659626 30.35726205 -0.05203772 25.72159136 -0.04621124 21.08592224 C-0.03654091 14.05725503 -0.01736904 7.02867139 0 0 Z " fill="#D43DFF" transform="translate(581,302)"/>
<path d="M0 0 C4.23676846 2.83495412 7.8288252 6.8451504 10.11328125 11.4140625 C10.64064298 17.62070442 10.87575607 23.19514582 7.11328125 28.4140625 C1.43892937 34.22852183 -3.44958132 36.69693865 -11.69921875 36.8515625 C-18.09708047 36.75777186 -22.16533876 35.76583951 -26.88671875 31.4140625 C-32.00808476 26.02315092 -33.37944518 21.15099446 -33.1953125 13.83984375 C-32.44064138 7.9075556 -28.02245107 4.23784888 -23.59765625 0.671875 C-16.56104011 -4.50116244 -7.57333509 -3.73958642 0 0 Z " fill="#D43FFF" transform="translate(612.88671875,250.5859375)"/>
<path d="M0 0 C5.11433374 2.79504286 8.7042158 6.92899752 10.875 12.375 C11.70379019 20.20032132 11.94814472 27.97170148 6.875 34.375 C2.54113641 38.77519823 -0.72186567 40.54209011 -6.875 40.6875 C-12.15599209 40.63696419 -15.13139067 40.06908863 -19.125 36.375 C-24.98599353 30.02559034 -25.6361854 24.25871638 -25.50390625 15.828125 C-24.79917274 9.40560517 -21.71679169 5.61186065 -17 1.4375 C-11.55282323 -2.47025725 -6.07642231 -2.76827557 0 0 Z " fill="#FEFCFF" transform="translate(203.125,330.625)"/>
<path d="M0 0 C4.3237371 2.68995858 7.06937488 6.61033678 9.046875 11.2734375 C10.03257543 18.01287767 9.06955167 23.73300246 5.046875 29.2734375 C1.6237753 32.87043798 -2.30817027 35.93736239 -7.3203125 36.57421875 C-12.62959534 36.59902848 -16.49067136 36.44673787 -20.953125 33.2734375 C-26.21408304 27.9360755 -29.10022685 24.64916296 -29.265625 17.0234375 C-29.21133056 11.54573179 -28.85230533 8.37783785 -24.953125 4.2734375 C-17.02965146 -3.26869239 -9.95345363 -4.8394378 0 0 Z " fill="#FEFCFF" transform="translate(74.953125,333.7265625)"/>
<path d="M0 0 C4.71002453 3.31864004 8.66450563 7.01990918 9.75 12.875 C10.32517081 18.85898859 9.84678512 23.58049641 6.75 28.875 C2.24381039 33.59887993 -2.29588403 37.13101915 -9 37.3125 C-14.53188104 37.19827237 -18.0689014 35.40764118 -22.25 31.875 C-27.35197307 26.50450203 -28.73564565 21.65403272 -28.5625 14.37109375 C-27.90620683 9.12895204 -25.22225209 5.53783519 -21.3125 2.0625 C-14.6444848 -2.700368 -7.37069308 -4.333243 0 0 Z " fill="#FEFCFF" transform="translate(335.25,333.125)"/>
<path d="M0 0 C4.6197523 1.68798642 7.46682421 3.74426466 10 8 C9.59765625 10.6640625 9.59765625 10.6640625 9 13 C4.70915318 14.00354037 0.41719284 15.00223371 -3.875 16 C-5.09832031 16.28617187 -6.32164062 16.57234375 -7.58203125 16.8671875 C-9.33193359 17.27324219 -9.33193359 17.27324219 -11.1171875 17.6875 C-12.19597168 17.93886719 -13.27475586 18.19023437 -14.38623047 18.44921875 C-17 19 -17 19 -19 19 C-18.73103369 12.94825803 -18.09093541 8.75433035 -14 4 C-9.44787756 0.06862153 -5.81719888 -0.95402062 0 0 Z " fill="#FDF8FF" transform="translate(453,324)"/>
</svg>
